Coordinates
version=1
nRows=5
nColumns=46
inDegrees=yes

Units are S.I. units (second, meters, Newtons, ...)
Angles are in degrees.

endheader
time	pelvis_tilt	pelvis_list	pelvis_rotation	pelvis_tx	pelvis_ty	pelvis_tz	bb_angle	bb_tx	bb_ty	bb_tz	hip_flexion_r	hip_adduction_r	hip_rotation_r	knee_angle_r	knee_angle_r_beta	ankle_angle_r	subtalar_angle_r	mtp_angle_r	crank_angle_r	hip_flexion_l	hip_adduction_l	hip_rotation_l	knee_angle_l	knee_angle_l_beta	ankle_angle_l	subtalar_angle_l	mtp_angle_l	crank_angle_l	lumbar_extension	lumbar_bending	lumbar_rotation	arm_flex_r	arm_add_r	arm_rot_r	elbow_flex_r	pro_sup_r	wrist_flex_r	wrist_dev_r	arm_flex_l	arm_add_l	arm_rot_l	elbow_flex_l	pro_sup_l	wrist_flex_l	wrist_dev_l
      2.50500000	    -21.21266117	     14.37125387	     12.79748629	      0.15239608	      1.15848808	     -0.19920086	      0.00000000	      0.50000000	      0.00000000	      0.25000000	     50.58619010	    -21.28590493	      5.10435500	     55.75514007	      0.97311077	    -18.56501224	    -12.64733009	      0.00000000	      0.00000000	     72.01775613	      9.55488572	     -8.28870892	     65.17374349	      1.13749641	     23.75303073	     -0.44248935	      0.00000000	      0.00000000	    -58.65452302	     -3.70805632	    -16.27189093	     89.29096735	    -12.32927673	     33.92581227	     37.40155003	     38.85862653	      0.00000000	      0.00000000	     89.76678362	     -7.52156842	     27.94364484	     48.92609083	     26.90206778	      0.00000000	      0.00000000
      2.51000000	    -21.06613710	     14.29059994	     12.57744129	      0.15267571	      1.15711596	     -0.19858924	      0.00000000	      0.50000000	      0.00000000	      0.25000000	     51.27176872	    -21.16628776	      5.12765992	     57.72040198	      1.00741106	    -17.64386017	    -12.61308944	      0.00000000	      0.00000000	     71.32459567	      9.51012225	     -8.09082837	     63.78654978	      1.11328531	     23.24193941	     -0.47740701	      0.00000000	      0.00000000	    -58.78869762	     -3.82815076	    -16.03641304	     89.28269665	    -12.51898303	     33.87363194	     37.72933178	     38.87255767	      0.00000000	      0.00000000	     89.76444342	     -7.48329456	     27.89264410	     49.12328667	     26.84298330	      0.00000000	      0.00000000
      2.51500000	    -20.85439324	     14.00516709	     12.23840203	      0.15311925	      1.15601420	     -0.19792954	      0.00000000	      0.50000000	      0.00000000	      0.25000000	     51.80841495	    -20.75325239	      5.10750198	     59.52068604	      1.03883194	    -17.04415492	    -12.78128848	      0.00000000	      0.00000000	     70.57385157	      9.28647102	     -7.68949210	     62.42243239	      1.08947697	     22.74161282	     -0.42169078	      0.00000000	      0.00000000	    -58.92055391	     -3.83733200	    -15.63438149	     89.30203897	    -12.55227807	     33.84555655	     37.85621294	     38.88147118	      0.00000000	      0.00000000	     89.76378118	     -7.56463483	     27.81782355	     49.21496365	     26.83067975	      0.00000000	      0.00000000
      2.52000000	    -20.72395519	     13.94614816	     11.97067366	      0.15375370	      1.15475950	     -0.19761285	      0.00000000	      0.50000000	      0.00000000	      0.25000000	     52.45879162	    -20.59962870	      5.23757120	     61.46459790	      1.07275961	    -15.72818565	    -12.81803845	      0.00000000	      0.00000000	     69.87022622	      9.24670115	     -7.52429877	     61.04671977	      1.06546626	     21.97739207	     -0.64740865	      0.00000000	      0.00000000	    -59.05970286	     -3.99954198	    -15.38661804	     89.28340045	    -12.83088630	     33.71767739	     38.13366829	     38.89794765	      0.00000000	      0.00000000	     89.75923434	     -7.45900070	     27.76069332	     49.46051701	     26.82512095	      0.00000000	      0.00000000
      2.52500000	    -20.50560924	     14.10202616	     11.72322814	      0.15458536	      1.15406022	     -0.19758088	      0.00000000	      0.50000000	      0.00000000	      0.25000000	     53.03575455	    -20.74874232	      5.45374194	     63.34645373	      1.10560419	    -14.40334101	    -11.80346138	      0.00000000	      0.00000000	     68.92788173	      9.46883388	     -7.35087836	     59.46780415	      1.03790898	     21.00493135	     -1.37096712	      0.00000000	      0.00000000	    -59.43644559	     -4.22386644	    -15.18657493	     89.18207935	    -13.59806227	     33.62613253	     39.29209526	     39.04389638	      0.00000000	      0.00000000	     89.75548453	     -7.12390274	     27.48905372	     49.86485528	     26.64584165	      0.00000000	      0.00000000
